<?xml version="1.0" encoding="utf-8"?>
<!-- Generator: Adobe Illustrator 14.0.0, SVG Export Plug-In . SVG Version: 6.00 Build 43363)  -->
<!DOCTYPE svg PUBLIC "-//W3C//DTD SVG 1.1//EN" "http://www.w3.org/Graphics/SVG/1.1/DTD/svg11.dtd">
<svg version="1.1" id="Layer_1" xmlns="http://www.w3.org/2000/svg" xmlns:xlink="http://www.w3.org/1999/xlink" x="0px" y="0px"
	 width="82.799px" height="82.513px" viewBox="0 0 82.799 82.513" enable-background="new 0 0 82.799 82.513" xml:space="preserve">
<g>
	<polygon fill="#444B4C" points="41.399,14.519 44.818,11.651 41.399,5.725 37.978,11.648 	"/>
	<polygon fill="#444B4C" points="32.251,66.379 28.054,67.907 29.242,74.647 34.484,70.25 	"/>
	<polygon fill="#444B4C" points="41.396,67.994 37.978,70.865 41.396,76.788 44.818,70.865 	"/>
	<polygon fill="#444B4C" points="34.487,12.263 29.246,7.869 28.057,14.606 32.253,16.131 	"/>
	<polygon fill="#444B4C" points="10.627,23.492 14.05,29.414 18.243,27.887 17.469,23.492 	"/>
	<polygon fill="#444B4C" points="18.559,14.038 19.747,20.775 24.211,20.775 24.988,16.377 	"/>
	<polygon fill="#444B4C" points="50.545,16.134 54.739,14.606 53.551,7.869 48.312,12.266 	"/>
	<polygon fill="#444B4C" points="48.31,70.25 53.551,74.647 54.739,67.91 50.542,66.382 	"/>
	<polygon fill="#444B4C" points="72.168,59.024 68.749,53.099 64.553,54.627 65.327,59.024 	"/>
	<polygon fill="#444B4C" points="6.408,35.086 11.647,39.484 15.068,36.614 12.835,32.747 	"/>
	<polygon fill="#444B4C" points="12.835,49.765 15.068,45.896 11.647,43.029 6.408,47.427 	"/>
	<polygon fill="#444B4C" points="17.466,59.021 18.243,54.624 14.046,53.096 10.627,59.021 	"/>
	<polygon fill="#444B4C" points="69.962,32.749 67.731,36.615 71.149,39.486 76.391,35.088 	"/>
	<polygon fill="#444B4C" points="72.168,23.492 65.327,23.492 64.553,27.89 68.749,29.418 	"/>
	<polygon fill="#444B4C" points="71.149,43.029 67.731,45.9 69.962,49.767 76.391,47.427 	"/>
	<polygon fill="#444B4C" points="24.211,61.738 19.744,61.738 18.556,68.476 24.986,66.136 	"/>
	<polygon fill="#444B4C" points="58.585,20.775 63.049,20.775 64.237,14.038 57.811,16.377 	"/>
	<polygon fill="#444B4C" points="64.237,68.478 63.049,61.74 58.585,61.74 57.808,66.136 	"/>
	<path fill="#444B4C" d="M53.007,4.78L52.4,1.346C49.92,0.664,47.348,0.208,44.703,0l-1.736,3.008l3.965,6.868L53.007,4.78z"/>
	<path fill="#444B4C" d="M39.829,3.008L38.093,0c-2.644,0.21-5.216,0.664-7.696,1.346l-0.604,3.431l6.074,5.098L39.829,3.008z"/>
	<path fill="#444B4C" d="M17.411,7.525l0.604,3.424l7.451,2.71l1.379-7.812l-2.668-2.237C21.791,4.704,19.529,6.017,17.411,7.525z"
		/>
	<path fill="#444B4C" d="M16.992,20.774l-1.377-7.812l-3.269-1.19c-1.857,1.83-3.541,3.834-5.026,5.985l1.741,3.016H16.992z"/>
	<path fill="#444B4C" d="M11.456,52.152l-7.451-2.713l-2.678,2.248c0.66,2.548,1.561,5,2.671,7.333h3.492L11.456,52.152z"/>
	<path fill="#444B4C" d="M7.318,64.75c1.485,2.153,3.167,4.156,5.024,5.988l3.269-1.19l1.377-7.812h-7.93L7.318,64.75z"/>
	<path fill="#444B4C" d="M18.013,71.561l-0.604,3.425c2.115,1.508,4.376,2.82,6.762,3.915l2.67-2.241l-1.376-7.809L18.013,71.561z"
		/>
	<path fill="#444B4C" d="M42.967,79.503l1.738,3.01c2.643-0.209,5.215-0.663,7.695-1.346l0.606-3.434l-6.077-5.098L42.967,79.503z"
		/>
	<path fill="#444B4C" d="M29.79,77.733l0.604,3.432c2.48,0.685,5.053,1.139,7.696,1.348l1.739-3.01l-3.966-6.867L29.79,77.733z"/>
	<path fill="#444B4C" d="M64.784,10.95l0.604-3.424c-2.118-1.508-4.38-2.822-6.765-3.914l-2.669,2.24l1.375,7.809L64.784,10.95z"/>
	<path fill="#444B4C" d="M75.479,17.758c-1.485-2.149-3.168-4.153-5.023-5.984l-3.271,1.19l-1.377,7.81h7.931L75.479,17.758z"/>
	<path fill="#444B4C" d="M71.341,52.152l3.966,6.87H78.8c1.109-2.332,2.01-4.783,2.672-7.333l-2.68-2.247L71.341,52.152z"/>
	<path fill="#444B4C" d="M82.609,37.35l-3.271-1.191l-6.074,5.098l6.074,5.097l3.271-1.189c0.121-1.287,0.189-2.589,0.189-3.907
		C82.799,39.938,82.73,38.636,82.609,37.35z"/>
	<path fill="#444B4C" d="M9.535,41.254l-6.076-5.098l-3.269,1.19C0.069,38.635,0,39.937,0,41.257c0,1.316,0.069,2.617,0.188,3.904
		l3.273,1.19L9.535,41.254z"/>
	<path fill="#444B4C" d="M11.456,30.358l-3.963-6.867H3.999c-1.109,2.332-2.009,4.783-2.672,7.332l2.678,2.246L11.456,30.358z"/>
	<path fill="#444B4C" d="M71.341,30.358l7.451,2.713l2.68-2.249c-0.662-2.548-1.563-5-2.672-7.332h-3.493L71.341,30.358z"/>
	<path fill="#444B4C" d="M65.808,61.739l1.377,7.809l3.271,1.191c1.855-1.828,3.535-3.833,5.022-5.983l-1.742-3.017H65.808z"/>
	<path fill="#444B4C" d="M57.329,68.851l-1.375,7.809l2.671,2.241c2.384-1.093,4.647-2.404,6.763-3.912l-0.604-3.425L57.329,68.851z
		"/>
	<polygon fill="#444B4C" points="29.572,61.738 26.968,61.738 27.577,65.194 30.874,63.993 	"/>
	<polygon fill="#444B4C" points="30.874,18.521 27.58,17.319 26.97,20.775 29.572,20.775 	"/>
	<polygon fill="#444B4C" points="43.511,66.22 46.197,68.476 47.951,65.438 45.506,64.549 	"/>
	<polygon fill="#444B4C" points="36.601,14.038 34.846,17.075 37.293,17.966 39.288,16.293 	"/>
	<polygon fill="#444B4C" points="46.197,14.038 43.513,16.293 45.508,17.966 47.951,17.075 	"/>
	<polygon fill="#444B4C" points="34.846,65.438 36.598,68.476 39.286,66.22 37.291,64.548 	"/>
	<polygon fill="#444B4C" points="17.183,34.839 19.174,33.168 18.724,30.603 15.426,31.802 	"/>
	<polygon fill="#444B4C" points="23.281,26.054 23.733,23.492 20.228,23.492 20.835,26.946 	"/>
	<polygon fill="#444B4C" points="51.922,18.521 53.224,20.775 55.826,20.775 55.219,17.322 	"/>
	<polygon fill="#444B4C" points="23.731,59.021 23.281,56.457 20.832,55.565 20.225,59.021 	"/>
	<polygon fill="#444B4C" points="51.922,63.995 55.219,65.194 55.826,61.74 53.222,61.74 	"/>
	<polygon fill="#444B4C" points="59.513,56.46 59.062,59.024 62.571,59.024 61.961,55.567 	"/>
	<polygon fill="#444B4C" points="65.616,47.675 63.622,49.348 64.073,51.91 67.37,50.712 	"/>
	<polygon fill="#444B4C" points="17.747,41.255 16.447,39.001 13.761,41.255 16.446,43.511 	"/>
	<polygon fill="#444B4C" points="19.174,49.343 17.18,47.672 15.426,50.709 18.72,51.907 	"/>
	<polygon fill="#444B4C" points="66.352,43.513 69.038,41.259 66.352,39.003 65.048,41.259 	"/>
	<polygon fill="#444B4C" points="63.622,33.168 65.616,34.841 67.37,31.805 64.073,30.606 	"/>
	<polygon fill="#444B4C" points="59.064,23.492 59.517,26.057 61.961,26.946 62.571,23.492 	"/>
</g>
</svg>
